<svg width="32" height="32" viewBox="0 0 1274 830" xmlns="http://www.w3.org/2000/svg">
  <style>
    .l { fill: #e5e5e5 }
    @media (prefers-color-scheme: light) { .l { fill: #111 } }
  </style>
  <g transform="translate(29,760) scale(1,-1)">
    <path class="l" d="M262 -10Q197 -10 144.6 23Q92.1 55.9 61.6 112.5Q31 169 31 239.2Q31 310.5 61.5 366.7Q92 423 144.3 456.5Q196.6 490 262 490Q317 490 359.5 466.5Q402 443 427 402Q452 361 452 309V171Q452 119 427.5 78Q403 37 360 13.5Q317 -10 262 -10ZM280 94Q321 94 351.4 112.7Q381.8 131.3 398.9 164.2Q416 197 416 240Q416 283.4 398.8 316.1Q381.6 348.8 351.3 367.4Q321 386 280.5 386Q240 386 209.6 367.3Q179.2 348.6 161.6 315.8Q144 282.9 144 240Q144 197 161.4 164Q178.8 131.1 209.7 112.5Q240.5 94 280 94ZM519 0H409V129L428 246L409 362V720H519Z"/>
    <path class="l" transform="translate(550,0)" d="M155 264V364H330Q365.5 364 393.3 378.3Q421 392.6 437 419.1Q453 445.5 453 482Q453 518.5 437 544.9Q421 571.4 393.3 585.7Q365.5 600 330 600H155V700H336Q402 700 454.5 673Q507 646 537.5 597.2Q568 548.4 568 482.2Q568 416 537.5 367Q507 318 454.5 291Q402 264 336 264ZM76 0V700H191V0Z"/>
  </g>
</svg>
